<?xml version="1.0" encoding="UTF-8"?>
<svg width="28px" height="28px" viewBox="0 0 28 28" version="1.1" xmlns="http://www.w3.org/2000/svg" xmlns:xlink="http://www.w3.org/1999/xlink" style="background: #000000;">
    <!-- Generator: Sketch 64 (93537) - https://sketch.com -->
    <title>ProjectCard__FeatureIcon--team</title>
    <desc>Created with Sketch.</desc>
    <g id="ProjectCard__FeatureIcon--team" stroke="none" stroke-width="1" fill="none" fill-rule="evenodd">
        <rect fill="#000000" x="0" y="0" width="28" height="28"></rect>
        <path d="M4.09821429,13.2820513 C5.56083984,13.2820513 6.75,12.0804687 6.75,10.6025641 C6.75,9.12465946 5.56083984,7.92307692 4.09821429,7.92307692 C2.63558873,7.92307692 1.44642857,9.12465946 1.44642857,10.6025641 C1.44642857,12.0804687 2.63558873,13.2820513 4.09821429,13.2820513 Z M22.9017857,13.2820513 C24.3644113,13.2820513 25.5535714,12.0804687 25.5535714,10.6025641 C25.5535714,9.12465946 24.3644113,7.92307692 22.9017857,7.92307692 C21.4391602,7.92307692 20.25,9.12465946 20.25,10.6025641 C20.25,12.0804687 21.4391602,13.2820513 22.9017857,13.2820513 Z M24.3260708,14.7435897 L21.6521416,14.7435897 C20.9168111,14.7435897 20.2525068,15.0408454 19.7678571,15.5223157 C21.4515969,16.4475761 22.646509,18.1180689 22.9055459,20.1025641 L25.6630354,20.1025641 C26.4025439,20.1025641 27,19.5038662 27,18.7628205 L27,17.4230769 C27,15.9451723 25.8009099,14.7435897 24.3260708,14.7435897 Z M13.5,14.7435897 C16.1647003,14.7435897 18.3214286,12.5643315 18.3214286,9.87179487 C18.3214286,7.17925824 16.1647003,5 13.5,5 C10.8352997,5 8.67857143,7.17925824 8.67857143,9.87179487 C8.67857143,12.5643315 10.8352997,14.7435897 13.5,14.7435897 Z M16.7785714,15.7179487 L16.4242467,15.7179487 C15.5363002,16.1493056 14.5501674,16.4081197 13.5,16.4081197 C12.4498326,16.4081197 11.4679688,16.1493056 10.5757533,15.7179487 L10.2214286,15.7179487 C7.50636161,15.7179487 5.30357143,17.94375 5.30357143,20.6871795 L5.30357143,21.9294872 C5.30357143,23.0725828 6.22140067,24 7.35267857,24 L19.6473214,24 C20.7785993,24 21.6964286,23.0725828 21.6964286,21.9294872 L21.6964286,20.6871795 C21.6964286,17.94375 19.4936384,15.7179487 16.7785714,15.7179487 Z M7.23214286,15.5223157 C6.74749319,15.0408454 6.08318891,14.7435897 5.34785838,14.7435897 L2.67392919,14.7435897 C1.19909012,14.7435897 0,15.9451723 0,17.4230769 L0,18.7628205 C0,19.5038662 0.597456053,20.1025641 1.3369646,20.1025641 L4.09027606,20.1025641 C4.35349096,18.1180689 5.54840307,16.4475761 7.23214286,15.5223157 Z" id="Shape" fill="#FFFFFF" fill-rule="nonzero"></path>
    </g>
</svg>