<?xml version="1.0" encoding="UTF-8"?>
<svg width="28px" height="28px" viewBox="0 0 28 28" version="1.1" xmlns="http://www.w3.org/2000/svg" xmlns:xlink="http://www.w3.org/1999/xlink" style="background: #000000;">
    <!-- Generator: Sketch 64 (93537) - https://sketch.com -->
    <title>ProjectCard__FeatureIcon--globe</title>
    <desc>Created with Sketch.</desc>
    <g id="ProjectCard__FeatureIcon--globe" stroke="none" stroke-width="1" fill="none" fill-rule="evenodd">
        <rect fill="#000000" x="0" y="0" width="28" height="28"></rect>
        <path d="M14,0 C6.272,0 0,6.272 0,14 C0,21.728 6.272,28 14,28 C21.728,28 28,21.728 28,14 C28,6.272 21.728,0 14,0 Z M13,25 C7.35714286,24.2942387 3,19.4547325 3,13.5781893 C3,12.6851852 3.11428571,11.8353909 3.3,11 L10.1428571,17.899177 L10.1428571,19.3395062 C10.1428571,20.9238683 11.4285714,22.2201646 13,22.2201646 L13,25 Z M22.025,22 C21.6566667,20.8609375 20.6083333,20.0453125 19.3333333,20.0453125 L17.9166667,20.0453125 L17.9166667,15.8265625 C17.9166667,15.053125 17.2791667,14.4203125 16.5,14.4203125 L8,14.4203125 L8,11.6078125 L10.8333333,11.6078125 C11.6125,11.6078125 12.25,10.975 12.25,10.2015625 L12.25,7.3890625 L15.0833333,7.3890625 C16.6416667,7.3890625 17.9166667,6.1234375 17.9166667,4.5765625 L17.9166667,4 C22.0675,5.6734375 25,9.709375 25,14.4203125 C25,17.3453125 23.8666667,20.003125 22.025,22 Z" id="Shape" fill="#FFFFFF" fill-rule="nonzero"></path>
    </g>
</svg>