<?xml version="1.0" encoding="UTF-8"?>
<svg width="28px" height="28px" viewBox="0 0 28 28" version="1.1" xmlns="http://www.w3.org/2000/svg" xmlns:xlink="http://www.w3.org/1999/xlink" style="background: #000000;">
    <!-- Generator: Sketch 64 (93537) - https://sketch.com -->
    <title>ProjectCard__FeatureIcon--copany</title>
    <desc>Created with Sketch.</desc>
    <g id="ProjectCard__FeatureIcon--copany" stroke="none" stroke-width="1" fill="none" fill-rule="evenodd">
        <rect fill="#000000" x="0" y="0" width="28" height="28"></rect>
        <path d="M8.85714286,8.09375 L8.85714286,5.90625 C8.85714286,5.5453125 9.14642857,5.25 9.5,5.25 L11.6428571,5.25 C11.9964286,5.25 12.2857143,5.5453125 12.2857143,5.90625 L12.2857143,8.09375 C12.2857143,8.4546875 11.9964286,8.75 11.6428571,8.75 L9.5,8.75 C9.14642857,8.75 8.85714286,8.4546875 8.85714286,8.09375 Z M16.3571429,8.75 L18.5,8.75 C18.8535714,8.75 19.1428571,8.4546875 19.1428571,8.09375 L19.1428571,5.90625 C19.1428571,5.5453125 18.8535714,5.25 18.5,5.25 L16.3571429,5.25 C16.0035714,5.25 15.7142857,5.5453125 15.7142857,5.90625 L15.7142857,8.09375 C15.7142857,8.4546875 16.0035714,8.75 16.3571429,8.75 Z M9.5,14 L11.6428571,14 C11.9964286,14 12.2857143,13.7046875 12.2857143,13.34375 L12.2857143,11.15625 C12.2857143,10.7953125 11.9964286,10.5 11.6428571,10.5 L9.5,10.5 C9.14642857,10.5 8.85714286,10.7953125 8.85714286,11.15625 L8.85714286,13.34375 C8.85714286,13.7046875 9.14642857,14 9.5,14 Z M16.3571429,14 L18.5,14 C18.8535714,14 19.1428571,13.7046875 19.1428571,13.34375 L19.1428571,11.15625 C19.1428571,10.7953125 18.8535714,10.5 18.5,10.5 L16.3571429,10.5 C16.0035714,10.5 15.7142857,10.7953125 15.7142857,11.15625 L15.7142857,13.34375 C15.7142857,13.7046875 16.0035714,14 16.3571429,14 Z M12.2857143,18.59375 L12.2857143,16.40625 C12.2857143,16.0453125 11.9964286,15.75 11.6428571,15.75 L9.5,15.75 C9.14642857,15.75 8.85714286,16.0453125 8.85714286,16.40625 L8.85714286,18.59375 C8.85714286,18.9546875 9.14642857,19.25 9.5,19.25 L11.6428571,19.25 C11.9964286,19.25 12.2857143,18.9546875 12.2857143,18.59375 Z M16.3571429,19.25 L18.5,19.25 C18.8535714,19.25 19.1428571,18.9546875 19.1428571,18.59375 L19.1428571,16.40625 C19.1428571,16.0453125 18.8535714,15.75 18.5,15.75 L16.3571429,15.75 C16.0035714,15.75 15.7142857,16.0453125 15.7142857,16.40625 L15.7142857,18.59375 C15.7142857,18.9546875 16.0035714,19.25 16.3571429,19.25 Z M26,26.03125 L26,28 L2,28 L2,26.03125 C2,25.6703125 2.28928571,25.375 2.64285714,25.375 L3.6875,25.375 L3.6875,1.3125 C3.6875,0.58515625 4.26071429,0 4.97321429,0 L23.0267857,0 C23.7392857,0 24.3125,0.58515625 24.3125,1.3125 L24.3125,25.375 L25.3571429,25.375 C25.7107143,25.375 26,25.6703125 26,26.03125 Z M6.25892857,25.3203125 L12.2857143,25.3203125 L12.2857143,21.65625 C12.2857143,21.2953125 12.575,21 12.9285714,21 L15.0714286,21 C15.425,21 15.7142857,21.2953125 15.7142857,21.65625 L15.7142857,25.3203125 L21.7410714,25.3203125 L21.7410714,2.6796875 L6.28571429,2.625 L6.25892857,25.3203125 Z" id="Shape" fill="#FFFFFF" fill-rule="nonzero"></path>
    </g>
</svg>