<?xml version="1.0" encoding="UTF-8"?>
<svg width="28px" height="28px" viewBox="0 0 28 28" version="1.1" xmlns="http://www.w3.org/2000/svg" xmlns:xlink="http://www.w3.org/1999/xlink" style="background: #000000;">
    <!-- Generator: Sketch 64 (93537) - https://sketch.com -->
    <title>ProjectCard__FeatureIcon--type</title>
    <desc>Created with Sketch.</desc>
    <g id="ProjectCard__FeatureIcon--type" stroke="none" stroke-width="1" fill="none" fill-rule="evenodd">
        <rect fill="#000000" x="0" y="0" width="28" height="28"></rect>
        <g id="Shape-2" transform="translate(0.000000, 3.000000)" fill="#FFFFFF" fill-rule="nonzero">
            <path d="M25.2,0 L2.8,0 C1.26,0 0.014,1.2375 0.014,2.75 L0,19.25 C0,20.7625 1.26,22 2.8,22 L25.2,22 C26.74,22 28,20.7625 28,19.25 L28,2.75 C28,1.2375 26.74,0 25.2,0 Z M17.92,19.8 L2.24,19.8 L2.24,14.3 L17.92,14.3 L17.92,19.8 Z M17.92,12.1 L2.24,12.1 L2.24,6.6 L17.92,6.6 L17.92,12.1 Z M25.76,18.7 L20.16,18.7 L20.16,6.6 L25.76,6.6 L25.76,18.7 Z" id="Shape"></path>
        </g>
    </g>
</svg>