<?xml version="1.0" encoding="UTF-8"?>
<svg width="54px" height="54px" viewBox="0 0 54 54" version="1.1" xmlns="http://www.w3.org/2000/svg" xmlns:xlink="http://www.w3.org/1999/xlink">
    <!-- Generator: Sketch 61.2 (89653) - https://sketch.com -->
    <title>Group</title>
    <desc>Created with Sketch.</desc>
    <g id="Symbols" stroke="none" stroke-width="1" fill="none" fill-rule="evenodd">
        <g id="Logo|CodeWhite" transform="translate(-5.000000, -5.000000)">
            <g id="Asset-7">
                <g id="Group" transform="translate(6.000000, 6.000000)">
                    <circle id="Oval" stroke="#1D1D1B" stroke-width="1.5" cx="26" cy="26" r="26"></circle>
                    <path d="M6,26.12 L6,25.88 C5.98981186,25.6175883 6.14605,25.3772219 6.39,25.28 L18.66,19.78 C19.06,19.62 19.26,19.75 19.26,20.17 L19.26,20.53 C19.2714865,20.7951889 19.1155244,21.0391296 18.87,21.14 L7.87,26 L7.87,26 L18.87,30.83 C19.1135728,30.933194 19.2685584,31.1756073 19.26,31.44 L19.26,31.8 C19.26,32.22 19.06,32.35 18.66,32.19 L6.39,26.69 C6.1564124,26.596701 6.00234131,26.3715202 6,26.12 L6,26.12 Z" id="Path" fill="#1D1D1B" fill-rule="nonzero"></path>
                    <path d="M29,14.61 C29.087106,14.354209 29.3298446,14.184292 29.6,14.19 L29.87,14.19 C30.0211234,14.1771425 30.169433,14.2364664 30.27,14.35 C30.3412374,14.4773836 30.3412374,14.6326164 30.27,14.76 L23,37.39 C22.912894,37.645791 22.6701554,37.815708 22.4,37.81 L22.13,37.81 C21.9815138,37.8246199 21.8354358,37.7646904 21.74,37.65 C21.6573571,37.5258269 21.6573571,37.3641731 21.74,37.24 L29,14.61 Z" id="Path" fill="#1D1D1B" fill-rule="nonzero"></path>
                    <path d="M32.74,31.47 C32.7314416,31.2056073 32.8864272,30.963194 33.13,30.86 L44.13,26.03 L44.13,26 L33.13,21.17 C32.8844756,21.0691296 32.7285135,20.8251889 32.74,20.56 L32.74,20.2 C32.74,19.78 32.94,19.65 33.34,19.81 L45.61,25.31 C45.85395,25.4072219 46.0101881,25.6475883 46,25.91 L46,26.15 C46.0101881,26.4124117 45.85395,26.6527781 45.61,26.75 L33.34,32.25 C32.94,32.41 32.74,32.28 32.74,31.86 L32.74,31.47 Z" id="Path" fill="#1D1D1B" fill-rule="nonzero"></path>
                </g>
            </g>
        </g>
    </g>
</svg>