<?xml version="1.0" encoding="iso-8859-1"?>
<!-- Generator: Adobe Illustrator 19.0.0, SVG Export Plug-In . SVG Version: 6.00 Build 0)  -->
<svg version="1.1" id="Capa_1" xmlns="http://www.w3.org/2000/svg" xmlns:xlink="http://www.w3.org/1999/xlink" x="0px" y="0px"
	 viewBox="0 0 384 384" style="enable-background:new 0 0 384 384;" xml:space="preserve">
<g>
	<g>
		<path d="M155.312,156.688c-6.248-6.248-16.376-6.248-22.624,0l-64,64c-6.248,6.248-6.248,16.376,0,22.624
			C71.816,246.44,75.904,248,80,248s8.184-1.56,11.312-4.688l64-64C161.56,173.064,161.56,162.936,155.312,156.688z"/>
	</g>
</g>
<g>
	<g>
		<path d="M94.624,145.376c-6.248-6.248-16.376-6.248-22.624,0L49.376,168c-6.248,6.248-6.248,16.376,0,22.624
			c3.128,3.128,7.216,4.688,11.312,4.688s8.184-1.56,11.312-4.688L94.624,168C100.872,161.752,100.872,151.624,94.624,145.376z"/>
	</g>
</g>
<g>
	<g>
		<path d="M368,192h-96c-8.832,0-16,7.168-16,16c0,8.832,7.168,16,16,16h96c8.832,0,16-7.168,16-16C384,199.168,376.832,192,368,192
			z"/>
	</g>
</g>
<g>
	<g>
		<path d="M368,0H112c-8.832,0-16,7.168-16,16v96c0,8.832,7.168,16,16,16c8.832,0,16-7.168,16-16V32h224v224h-80
			c-8.832,0-16,7.168-16,16c0,8.832,7.168,16,16,16h96c8.832,0,16-7.168,16-16V16C384,7.168,376.832,0,368,0z"/>
	</g>
</g>
<g>
	<g>
		<path d="M272,288H16c-8.832,0-16,7.168-16,16c0,8.832,7.168,16,16,16h256c8.832,0,16-7.168,16-16C288,295.168,280.832,288,272,288
			z"/>
	</g>
</g>
<g>
	<g>
		<path d="M272,96H16c-8.832,0-16,7.168-16,16v256c0,8.832,7.168,16,16,16h256c8.832,0,16-7.168,16-16V112
			C288,103.168,280.832,96,272,96z M256,352H32V128h224V352z"/>
	</g>
</g>
<g>
</g>
<g>
</g>
<g>
</g>
<g>
</g>
<g>
</g>
<g>
</g>
<g>
</g>
<g>
</g>
<g>
</g>
<g>
</g>
<g>
</g>
<g>
</g>
<g>
</g>
<g>
</g>
<g>
</g>
</svg>
