<?xml version="1.0" encoding="UTF-8"?>
<svg width="222px" height="222px" viewBox="0 0 222 222" version="1.1" xmlns="http://www.w3.org/2000/svg" xmlns:xlink="http://www.w3.org/1999/xlink">
    <title>Group 13</title>
    <defs>
        <rect id="path-1" x="0" y="0" width="222" height="222"></rect>
    </defs>
    <g id="Landing" stroke="none" stroke-width="1" fill="none" fill-rule="evenodd">
        <g id="Group-17">
            <g id="Group-14">
                <g id="Group-13">
                    <mask id="mask-2" fill="white">
                        <use xlink:href="#path-1"></use>
                    </mask>
                    <g id="Rectangle"></g>
                    <g id="Group-12" mask="url(#mask-2)" fill="#FFFFFF">
                        <g transform="translate(129.384375, 111.346875) rotate(-315.000000) translate(-129.384375, -111.346875) translate(-71.456250, -63.825000)">
                            <rect id="Rectangle" x="0" y="0" width="13.875" height="350.34375"></rect>
                            <rect id="Rectangle-Copy" x="29.83125" y="0" width="13.875" height="350.34375"></rect>
                            <rect id="Rectangle-Copy-2" x="59.6625" y="0" width="13.875" height="350.34375"></rect>
                            <rect id="Rectangle-Copy-3" x="89.49375" y="0" width="13.875" height="350.34375"></rect>
                            <rect id="Rectangle-Copy-4" x="119.325" y="0" width="13.875" height="350.34375"></rect>
                            <rect id="Rectangle-Copy-5" x="149.15625" y="0" width="13.875" height="350.34375"></rect>
                            <rect id="Rectangle-Copy-6" x="178.9875" y="0" width="13.875" height="350.34375"></rect>
                            <rect id="Rectangle-Copy-7" x="208.81875" y="0" width="13.875" height="350.34375"></rect>
                            <rect id="Rectangle-Copy-8" x="238.65" y="0" width="13.875" height="350.34375"></rect>
                            <rect id="Rectangle-Copy-9" x="268.48125" y="0" width="13.875" height="350.34375"></rect>
                            <rect id="Rectangle-Copy-10" x="298.3125" y="0" width="13.875" height="350.34375"></rect>
                            <rect id="Rectangle-Copy-11" x="328.14375" y="0" width="13.875" height="350.34375"></rect>
                            <rect id="Rectangle-Copy-12" x="357.975" y="0" width="13.875" height="350.34375"></rect>
                            <rect id="Rectangle-Copy-13" x="387.80625" y="0" width="13.875" height="350.34375"></rect>
                        </g>
                    </g>
                </g>
            </g>
        </g>
    </g>
</svg>