<?xml version="1.0" encoding="UTF-8"?>
<svg width="164px" height="165px" viewBox="0 0 164 165" version="1.1" xmlns="http://www.w3.org/2000/svg" xmlns:xlink="http://www.w3.org/1999/xlink">
    <title>Group 21</title>
    <defs>
        <circle id="path-1" cx="82" cy="82" r="82"></circle>
    </defs>
    <g id="Landing" stroke="none" stroke-width="1" fill="none" fill-rule="evenodd">
        <g id="DesktopSidebar-aboutMe" transform="translate(-637.000000, -5678.000000)">
            <g id="Group-14" transform="translate(66.000000, 5059.000000)">
                <g id="Group-13" transform="translate(492.000000, 619.581998)">
                    <g id="Group-21" transform="translate(79.000000, 0.000000)">
                        <mask id="mask-2" fill="white">
                            <use xlink:href="#path-1"></use>
                        </mask>
                        <g id="Mask"></g>
                        <g mask="url(#mask-2)" fill="#AA6232">
                            <g transform="translate(81.988636, 81.902795) rotate(-315.000000) translate(-81.988636, -81.902795) translate(-1.011364, -15.097205)">
                                <circle id="Oval-Copy-16" cx="43.3305222" cy="17.1842555" r="3.73392857"></circle>
                                <circle id="Oval-Copy-4" cx="56.7250683" cy="3.89443379" r="3.73392857"></circle>
                                <circle id="Oval-Copy-17" cx="56.7164643" cy="17.142778" r="3.73392857"></circle>
                                <circle id="Oval-Copy-5" cx="69.7857332" cy="3.81552147" r="3.73392857"></circle>
                                <circle id="Oval-Copy-18" cx="69.7771292" cy="17.0638657" r="3.73392857"></circle>
                                <circle id="Oval-Copy-6" cx="83.0340774" cy="3.82412548" r="3.73392857"></circle>
                                <circle id="Oval-Copy-19" cx="83.0254734" cy="17.0724697" r="3.73392857"></circle>
                                <circle id="Oval-Copy-7" cx="96.2824216" cy="3.83272948" r="3.73392857"></circle>
                                <circle id="Oval-Copy-20" cx="96.2738176" cy="17.0810737" r="3.73392857"></circle>
                                <circle id="Oval-Copy-8" cx="109.393168" cy="3.89141501" r="3.73392857"></circle>
                                <circle id="Oval-Copy-21" cx="109.384564" cy="17.1397592" r="3.73392857"></circle>
                                <circle id="Oval-Copy-22" cx="122.632908" cy="17.1483632" r="3.73392857"></circle>
                                <circle id="Oval-Copy-36" cx="30.2612534" cy="30.5115121" r="3.73392857"></circle>
                                <circle id="Oval-Copy-35" cx="43.3719997" cy="30.5701976" r="3.73392857"></circle>
                                <circle id="Oval-Copy-34" cx="56.620344" cy="30.5788016" r="3.73392857"></circle>
                                <circle id="Oval-Copy-33" cx="69.6810088" cy="30.4998893" r="3.73392857"></circle>
                                <circle id="Oval-Copy-32" cx="83.0669509" cy="30.4584118" r="3.73392857"></circle>
                                <circle id="Oval-Copy-31" cx="96.3152952" cy="30.4670158" r="3.73392857"></circle>
                                <circle id="Oval-Copy-30" cx="109.426042" cy="30.5257013" r="3.73392857"></circle>
                                <circle id="Oval-Copy-29" cx="122.674386" cy="30.5343053" r="3.73392857"></circle>
                                <circle id="Oval-Copy-28" cx="135.785132" cy="30.5929909" r="3.73392857"></circle>
                                <circle id="Oval-Copy-50" cx="17.0043051" cy="43.7512523" r="3.73392857"></circle>
                                <circle id="Oval-Copy-49" cx="30.2526493" cy="43.7598563" r="3.73392857"></circle>
                                <circle id="Oval-Copy-48" cx="43.3633957" cy="43.8185419" r="3.73392857"></circle>
                                <circle id="Oval-Copy-47" cx="56.61174" cy="43.8271459" r="3.73392857"></circle>
                                <circle id="Oval-Copy-46" cx="69.8100027" cy="43.698152" r="3.73392857"></circle>
                                <circle id="Oval-Copy-45" cx="83.0583469" cy="43.706756" r="3.73392857"></circle>
                                <circle id="Oval-Copy-44" cx="96.3066912" cy="43.71536" r="3.73392857"></circle>
                                <circle id="Oval-Copy-43" cx="109.417438" cy="43.7740456" r="3.73392857"></circle>
                                <circle id="Oval-Copy-42" cx="122.665782" cy="43.7826496" r="3.73392857"></circle>
                                <circle id="Oval-Copy-41" cx="135.776528" cy="43.8413351" r="3.73392857"></circle>
                                <circle id="Oval-Copy-40" cx="149.024872" cy="43.8499391" r="3.73392857"></circle>
                                <circle id="Oval-Copy-64" cx="3.93503624" cy="57.0785089" r="3.73392857"></circle>
                                <circle id="Oval-Copy-63" cx="16.9957011" cy="56.9995966" r="3.73392857"></circle>
                                <circle id="Oval-Copy-62" cx="30.2440453" cy="57.0082006" r="3.73392857"></circle>
                                <circle id="Oval-Copy-61" cx="43.3547917" cy="57.0668861" r="3.73392857"></circle>
                                <circle id="Oval-Copy-60" cx="56.603136" cy="57.0754901" r="3.73392857"></circle>
                                <circle id="Oval-Copy-59" cx="69.8514802" cy="57.0840941" r="3.73392857"></circle>
                                <circle id="Oval-Copy-58" cx="83.0998244" cy="57.0926981" r="3.73392857"></circle>
                                <circle id="Oval-Copy-57" cx="96.2980871" cy="56.9637043" r="3.73392857"></circle>
                                <circle id="Oval-Copy-56" cx="109.408834" cy="57.0223898" r="3.73392857"></circle>
                                <circle id="Oval-Copy-55" cx="122.657178" cy="57.0309938" r="3.73392857"></circle>
                                <circle id="Oval-Copy-54" cx="135.767924" cy="57.0896793" r="3.73392857"></circle>
                                <circle id="Oval-Copy-53" cx="149.016268" cy="57.0982833" r="3.73392857"></circle>
                                <circle id="Oval-Copy-52" cx="162.076933" cy="57.019371" r="3.73392857"></circle>
                                <circle id="Oval-Copy-77" cx="3.97651376" cy="70.464451" r="3.73392857"></circle>
                                <circle id="Oval-Copy-76" cx="17.0371786" cy="70.3855386" r="3.73392857"></circle>
                                <circle id="Oval-Copy-75" cx="30.2855229" cy="70.3941426" r="3.73392857"></circle>
                                <circle id="Oval-Copy-74" cx="43.3962692" cy="70.4528282" r="3.73392857"></circle>
                                <circle id="Oval-Copy-73" cx="56.6446135" cy="70.4614322" r="3.73392857"></circle>
                                <circle id="Oval-Copy-72" cx="69.7052783" cy="70.3825199" r="3.73392857"></circle>
                                <circle id="Oval-Copy-71" cx="82.9536226" cy="70.3911239" r="3.73392857"></circle>
                                <circle id="Oval-Copy-70" cx="96.2019668" cy="70.3997279" r="3.73392857"></circle>
                                <circle id="Oval-Copy-69" cx="109.450311" cy="70.4083319" r="3.73392857"></circle>
                                <circle id="Oval-Copy-68" cx="122.698655" cy="70.4169359" r="3.73392857"></circle>
                                <circle id="Oval-Copy-67" cx="135.809402" cy="70.4756214" r="3.73392857"></circle>
                                <circle id="Oval-Copy-66" cx="149.057746" cy="70.4842254" r="3.73392857"></circle>
                                <circle id="Oval-Copy-65" cx="162.118411" cy="70.4053131" r="3.73392857"></circle>
                                <circle id="Oval-Copy-90" cx="3.96790975" cy="83.7127952" r="3.73392857"></circle>
                                <circle id="Oval-Copy-89" cx="17.0285746" cy="83.6338829" r="3.73392857"></circle>
                                <circle id="Oval-Copy-88" cx="30.2769189" cy="83.6424869" r="3.73392857"></circle>
                                <circle id="Oval-Copy-87" cx="43.3876652" cy="83.7011724" r="3.73392857"></circle>
                                <circle id="Oval-Copy-86" cx="56.6360095" cy="83.7097764" r="3.73392857"></circle>
                                <circle id="Oval-Copy-85" cx="69.7467559" cy="83.7684619" r="3.73392857"></circle>
                                <circle id="Oval-Copy-84" cx="82.9450186" cy="83.6394681" r="3.73392857"></circle>
                                <circle id="Oval-Copy-83" cx="96.1933628" cy="83.6480721" r="3.73392857"></circle>
                                <circle id="Oval-Copy-82" cx="109.441707" cy="83.6566761" r="3.73392857"></circle>
                                <circle id="Oval-Copy-81" cx="122.690051" cy="83.6652801" r="3.73392857"></circle>
                                <circle id="Oval-Copy-80" cx="135.800798" cy="83.7239656" r="3.73392857"></circle>
                                <circle id="Oval-Copy-79" cx="149.049142" cy="83.7325696" r="3.73392857"></circle>
                                <circle id="Oval-Copy-78" cx="162.109807" cy="83.6536573" r="3.73392857"></circle>
                                <circle id="Oval-Copy-103" cx="3.87178942" cy="97.1488188" r="3.73392857"></circle>
                                <circle id="Oval-Copy-102" cx="16.9324543" cy="97.0699065" r="3.73392857"></circle>
                                <circle id="Oval-Copy-101" cx="30.3183964" cy="97.028429" r="3.73392857"></circle>
                                <circle id="Oval-Copy-100" cx="43.4291428" cy="97.0871145" r="3.73392857"></circle>
                                <circle id="Oval-Copy-99" cx="56.677487" cy="97.0957185" r="3.73392857"></circle>
                                <circle id="Oval-Copy-98" cx="69.7381519" cy="97.0168062" r="3.73392857"></circle>
                                <circle id="Oval-Copy-97" cx="82.9864961" cy="97.0254102" r="3.73392857"></circle>
                                <circle id="Oval-Copy-96" cx="96.2348403" cy="97.0340142" r="3.73392857"></circle>
                                <circle id="Oval-Copy-95" cx="109.345587" cy="97.0926997" r="3.73392857"></circle>
                                <circle id="Oval-Copy-94" cx="122.593931" cy="97.1013037" r="3.73392857"></circle>
                                <circle id="Oval-Copy-93" cx="135.842275" cy="97.1099077" r="3.73392857"></circle>
                                <circle id="Oval-Copy-92" cx="149.090619" cy="97.1185117" r="3.73392857"></circle>
                                <circle id="Oval-Copy-91" cx="162.151284" cy="97.0395994" r="3.73392857"></circle>
                                <circle id="Oval-Copy-116" cx="3.86318542" cy="110.397163" r="3.73392857"></circle>
                                <circle id="Oval-Copy-115" cx="17.0614481" cy="110.268169" r="3.73392857"></circle>
                                <circle id="Oval-Copy-114" cx="30.3097924" cy="110.276773" r="3.73392857"></circle>
                                <circle id="Oval-Copy-113" cx="43.4205388" cy="110.335459" r="3.73392857"></circle>
                                <circle id="Oval-Copy-112" cx="56.668883" cy="110.344063" r="3.73392857"></circle>
                                <circle id="Oval-Copy-111" cx="69.7796294" cy="110.402748" r="3.73392857"></circle>
                                <circle id="Oval-Copy-110" cx="82.9778921" cy="110.273754" r="3.73392857"></circle>
                                <circle id="Oval-Copy-109" cx="96.2262363" cy="110.282358" r="3.73392857"></circle>
                                <circle id="Oval-Copy-108" cx="109.336983" cy="110.341044" r="3.73392857"></circle>
                                <circle id="Oval-Copy-107" cx="122.722925" cy="110.299566" r="3.73392857"></circle>
                                <circle id="Oval-Copy-106" cx="135.833671" cy="110.358252" r="3.73392857"></circle>
                                <circle id="Oval-Copy-105" cx="149.082015" cy="110.366856" r="3.73392857"></circle>
                                <circle id="Oval-Copy-104" cx="162.14268" cy="110.287944" r="3.73392857"></circle>
                                <circle id="Oval-Copy-129" cx="3.85458141" cy="123.645507" r="3.73392857"></circle>
                                <circle id="Oval-Copy-128" cx="17.0528441" cy="123.516513" r="3.73392857"></circle>
                                <circle id="Oval-Copy-127" cx="30.3011884" cy="123.525117" r="3.73392857"></circle>
                                <circle id="Oval-Copy-126" cx="43.4119347" cy="123.583803" r="3.73392857"></circle>
                                <circle id="Oval-Copy-125" cx="56.660279" cy="123.592407" r="3.73392857"></circle>
                                <circle id="Oval-Copy-124" cx="69.7710254" cy="123.651092" r="3.73392857"></circle>
                                <circle id="Oval-Copy-123" cx="83.0193696" cy="123.659696" r="3.73392857"></circle>
                                <circle id="Oval-Copy-122" cx="96.2677138" cy="123.668301" r="3.73392857"></circle>
                                <circle id="Oval-Copy-121" cx="109.328379" cy="123.589388" r="3.73392857"></circle>
                                <circle id="Oval-Copy-120" cx="122.714321" cy="123.547911" r="3.73392857"></circle>
                                <circle id="Oval-Copy-119" cx="135.825067" cy="123.606596" r="3.73392857"></circle>
                                <circle id="Oval-Copy-118" cx="149.073411" cy="123.6152" r="3.73392857"></circle>
                                <circle id="Oval-Copy-117" cx="162.134076" cy="123.536288" r="3.73392857"></circle>
                                <circle id="Oval-Copy-142" cx="3.89605893" cy="137.031449" r="3.73392857"></circle>
                                <circle id="Oval-Copy-141" cx="16.9567238" cy="136.952537" r="3.73392857"></circle>
                                <circle id="Oval-Copy-140" cx="30.205068" cy="136.961141" r="3.73392857"></circle>
                                <circle id="Oval-Copy-139" cx="43.4534123" cy="136.969745" r="3.73392857"></circle>
                                <circle id="Oval-Copy-138" cx="56.7017565" cy="136.978349" r="3.73392857"></circle>
                                <circle id="Oval-Copy-137" cx="69.7624214" cy="136.899437" r="3.73392857"></circle>
                                <circle id="Oval-Copy-136" cx="83.0107656" cy="136.908041" r="3.73392857"></circle>
                                <circle id="Oval-Copy-135" cx="96.2591098" cy="136.916645" r="3.73392857"></circle>
                                <circle id="Oval-Copy-134" cx="109.369856" cy="136.97533" r="3.73392857"></circle>
                                <circle id="Oval-Copy-133" cx="122.6182" cy="136.983934" r="3.73392857"></circle>
                                <circle id="Oval-Copy-132" cx="135.866545" cy="136.992538" r="3.73392857"></circle>
                                <circle id="Oval-Copy-131" cx="149.114889" cy="137.001142" r="3.73392857"></circle>
                                <circle id="Oval-Copy-130" cx="162.175554" cy="136.92223" r="3.73392857"></circle>
                                <circle id="Oval-Copy-154" cx="16.9481198" cy="150.200881" r="3.73392857"></circle>
                                <circle id="Oval-Copy-153" cx="30.196464" cy="150.209485" r="3.73392857"></circle>
                                <circle id="Oval-Copy-152" cx="43.4448083" cy="150.218089" r="3.73392857"></circle>
                                <circle id="Oval-Copy-151" cx="56.6931525" cy="150.226693" r="3.73392857"></circle>
                                <circle id="Oval-Copy-150" cx="69.8038989" cy="150.285379" r="3.73392857"></circle>
                                <circle id="Oval-Copy-149" cx="83.0522431" cy="150.293983" r="3.73392857"></circle>
                                <circle id="Oval-Copy-148" cx="96.2505058" cy="150.164989" r="3.73392857"></circle>
                                <circle id="Oval-Copy-147" cx="109.361252" cy="150.223674" r="3.73392857"></circle>
                                <circle id="Oval-Copy-146" cx="122.609596" cy="150.232279" r="3.73392857"></circle>
                                <circle id="Oval-Copy-145" cx="135.857941" cy="150.240883" r="3.73392857"></circle>
                                <circle id="Oval-Copy-144" cx="149.106285" cy="150.249487" r="3.73392857"></circle>
                                <circle id="Oval-Copy-166" cx="30.18786" cy="163.45783" r="3.73392857"></circle>
                                <circle id="Oval-Copy-165" cx="43.4362042" cy="163.466434" r="3.73392857"></circle>
                                <circle id="Oval-Copy-164" cx="56.6845485" cy="163.475038" r="3.73392857"></circle>
                                <circle id="Oval-Copy-163" cx="69.7952949" cy="163.533723" r="3.73392857"></circle>
                                <circle id="Oval-Copy-162" cx="83.0436391" cy="163.542327" r="3.73392857"></circle>
                                <circle id="Oval-Copy-161" cx="96.2919833" cy="163.550931" r="3.73392857"></circle>
                                <circle id="Oval-Copy-160" cx="109.352648" cy="163.472019" r="3.73392857"></circle>
                                <circle id="Oval-Copy-159" cx="122.600992" cy="163.480623" r="3.73392857"></circle>
                                <circle id="Oval-Copy-158" cx="135.849337" cy="163.489227" r="3.73392857"></circle>
                                <circle id="Oval-Copy-178" cx="43.3400839" cy="176.902457" r="3.73392857"></circle>
                                <circle id="Oval-Copy-177" cx="56.5884282" cy="176.911061" r="3.73392857"></circle>
                                <circle id="Oval-Copy-176" cx="69.8367724" cy="176.919665" r="3.73392857"></circle>
                                <circle id="Oval-Copy-175" cx="83.0851166" cy="176.928269" r="3.73392857"></circle>
                                <circle id="Oval-Copy-174" cx="96.2833793" cy="176.799275" r="3.73392857"></circle>
                                <circle id="Oval-Copy-173" cx="109.394126" cy="176.857961" r="3.73392857"></circle>
                                <circle id="Oval-Copy-172" cx="122.64247" cy="176.866565" r="3.73392857"></circle>
                                <circle id="Oval-Copy-190" cx="56.5798241" cy="190.159405" r="3.73392857"></circle>
                                <circle id="Oval-Copy-189" cx="69.8281684" cy="190.168009" r="3.73392857"></circle>
                                <circle id="Oval-Copy-188" cx="83.0765126" cy="190.176613" r="3.73392857"></circle>
                                <circle id="Oval-Copy-187" cx="96.3248568" cy="190.185217" r="3.73392857"></circle>
                                <circle id="Oval-Copy-186" cx="109.385522" cy="190.106305" r="3.73392857"></circle>
                            </g>
                        </g>
                    </g>
                </g>
            </g>
        </g>
    </g>
</svg>