<?xml version="1.0" encoding="UTF-8"?>
<svg width="114px" height="114px" viewBox="0 0 114 114" version="1.1" xmlns="http://www.w3.org/2000/svg" xmlns:xlink="http://www.w3.org/1999/xlink">
    <title>buildings</title>
    <g id="Symbols" stroke="none" stroke-width="1" fill="none" fill-rule="evenodd">
        <g id="ProjectType__icon--office" fill="#000000" fill-rule="nonzero">
            <g id="buildings">
                <path d="M11.4,64.6 L22.8,64.6 C23.8492676,64.6 24.7,63.7492676 24.7,62.7 L24.7,47.5 C24.7,46.4507324 23.8492676,45.6 22.8,45.6 L11.4,45.6 C10.3507324,45.6 9.5,46.4507324 9.5,47.5 L9.5,62.7 C9.5,63.7492676 10.3507324,64.6 11.4,64.6 Z M13.3,49.4 L20.9,49.4 L20.9,60.8 L13.3,60.8 L13.3,49.4 Z" id="Shape"></path>
                <path d="M51.3,24.7 L39.9,24.7 C38.8507324,24.7 38,25.5507324 38,26.6 L38,41.8 C38,42.8492676 38.8507324,43.7 39.9,43.7 L51.3,43.7 C52.3492676,43.7 53.2,42.8492676 53.2,41.8 L53.2,26.6 C53.2,25.5507324 52.3492676,24.7 51.3,24.7 Z M49.4,39.9 L41.8,39.9 L41.8,28.5 L49.4,28.5 L49.4,39.9 Z" id="Shape"></path>
                <path d="M62.7,43.7 L74.1,43.7 C75.1492676,43.7 76,42.8492676 76,41.8 L76,26.6 C76,25.5507324 75.1492676,24.7 74.1,24.7 L62.7,24.7 C61.6507324,24.7 60.8,25.5507324 60.8,26.6 L60.8,41.8 C60.8,42.8492676 61.6507324,43.7 62.7,43.7 Z M64.6,28.5 L72.2,28.5 L72.2,39.9 L64.6,39.9 L64.6,28.5 Z" id="Shape"></path>
                <path d="M51.3,47.5 L39.9,47.5 C38.8507324,47.5 38,48.3507324 38,49.4 L38,64.6 C38,65.6492676 38.8507324,66.5 39.9,66.5 L51.3,66.5 C52.3492676,66.5 53.2,65.6492676 53.2,64.6 L53.2,49.4 C53.2,48.3507324 52.3492676,47.5 51.3,47.5 Z M49.4,62.7 L41.8,62.7 L41.8,51.3 L49.4,51.3 L49.4,62.7 Z" id="Shape"></path>
                <path d="M76,64.6 L76,49.4 C76,48.3507324 75.1492676,47.5 74.1,47.5 L62.7,47.5 C61.6507324,47.5 60.8,48.3507324 60.8,49.4 L60.8,64.6 C60.8,65.6492676 61.6507324,66.5 62.7,66.5 L74.1,66.5 C75.1492676,66.5 76,65.6492676 76,64.6 Z M72.2,62.7 L64.6,62.7 L64.6,51.3 L72.2,51.3 L72.2,62.7 Z" id="Shape"></path>
                <path d="M11.4,91.2 L22.8,91.2 C23.8492676,91.2 24.7,90.3492676 24.7,89.3 L24.7,74.1 C24.7,73.0507324 23.8492676,72.2 22.8,72.2 L11.4,72.2 C10.3507324,72.2 9.5,73.0507324 9.5,74.1 L9.5,89.3 C9.5,90.3492676 10.3507324,91.2 11.4,91.2 Z M13.3,76 L20.9,76 L20.9,87.4 L13.3,87.4 L13.3,76 Z" id="Shape"></path>
                <path d="M112.1,34.2 C113.149268,34.2 114,33.3492676 114,32.3 L114,24.7 C114,23.6507324 113.149268,22.8 112.1,22.8 L87.4,22.8 L87.4,11.4 C88.4492676,11.4 89.3,10.5492676 89.3,9.5 L89.3,1.9 C89.3,0.850732362 88.4492676,0 87.4,0 L26.6,0 C25.5507324,0 24.7,0.850732362 24.7,1.9 L24.7,9.5 C24.7,10.5492676 25.5507324,11.4 26.6,11.4 L26.6,22.8 L1.9,22.8 C0.850732362,22.8 0,23.6507324 0,24.7 L0,32.3 C0,33.3492676 0.850732362,34.2 1.9,34.2 L3.8,34.2 L3.8,102.6 L1.9,102.6 C0.850732362,102.6 0,103.450732 0,104.5 L0,112.1 C0,113.149268 0.850732362,114 1.9,114 L112.1,114 C113.149268,114 114,113.149268 114,112.1 L114,104.5 C114,103.450732 113.149268,102.6 112.1,102.6 L110.2,102.6 L110.2,34.2 L112.1,34.2 Z M87.4,34.2 L106.4,34.2 L106.4,102.6 L87.4,102.6 L87.4,34.2 Z M28.5,3.8 L85.5,3.8 L85.5,7.6 L28.5,7.6 L28.5,3.8 Z M68.4,76 L45.6,76 C42.4521973,76 39.9,78.5521973 39.9,81.7 L39.9,102.6 L30.4,102.6 L30.4,17.1 L83.6,17.1 L83.6,102.6 L74.1,102.6 L74.1,81.7 C74.1,78.5521973 71.5478027,76 68.4,76 Z M70.3,81.7 L70.3,102.6 L58.9,102.6 L58.9,79.8 L68.4,79.8 C69.4492676,79.8 70.3,80.6507324 70.3,81.7 Z M55.1,79.8 L55.1,102.6 L43.7,102.6 L43.7,81.7 C43.7,80.6507324 44.5507324,79.8 45.6,79.8 L55.1,79.8 Z M30.4,13.3 L30.4,11.4 L83.6,11.4 L83.6,13.3 L30.4,13.3 Z M3.8,26.6 L26.6,26.6 L26.6,30.4 L3.8,30.4 L3.8,26.6 Z M26.6,34.2 L26.6,102.6 L7.6,102.6 L7.6,34.2 L26.6,34.2 Z M110.2,110.2 L3.8,110.2 L3.8,106.4 L110.2,106.4 L110.2,110.2 Z M87.4,30.4 L87.4,26.6 L110.2,26.6 L110.2,30.4 L87.4,30.4 Z" id="Shape"></path>
                <path d="M102.6,45.6 L91.2,45.6 C90.1507324,45.6 89.3,46.4507324 89.3,47.5 L89.3,62.7 C89.3,63.7492676 90.1507324,64.6 91.2,64.6 L102.6,64.6 C103.649268,64.6 104.5,63.7492676 104.5,62.7 L104.5,47.5 C104.5,46.4507324 103.649268,45.6 102.6,45.6 Z M100.7,60.8 L93.1,60.8 L93.1,49.4 L100.7,49.4 L100.7,60.8 Z" id="Shape"></path>
                <path d="M102.6,72.2 L91.2,72.2 C90.1507324,72.2 89.3,73.0507324 89.3,74.1 L89.3,89.3 C89.3,90.3492676 90.1507324,91.2 91.2,91.2 L102.6,91.2 C103.649268,91.2 104.5,90.3492676 104.5,89.3 L104.5,74.1 C104.5,73.0507324 103.649268,72.2 102.6,72.2 Z M100.7,87.4 L93.1,87.4 L93.1,76 L100.7,76 L100.7,87.4 Z" id="Shape"></path>
                <polygon id="Path" points="60.8 89.3 64.6 89.3 64.6 93.1 60.8 93.1"></polygon>
                <polygon id="Path" points="49.4 89.3 53.2 89.3 53.2 93.1 49.4 93.1"></polygon>
            </g>
        </g>
    </g>
</svg>