<?xml version="1.0" encoding="UTF-8"?>
<svg width="114px" height="115px" viewBox="0 0 114 115" version="1.1" xmlns="http://www.w3.org/2000/svg" xmlns:xlink="http://www.w3.org/1999/xlink">
    <title>business-and-finance</title>
    <g id="Symbols" stroke="none" stroke-width="1" fill="none" fill-rule="evenodd">
        <g id="ProjectType__icon--rocket" fill="#000000" fill-rule="nonzero">
            <g id="business-and-finance">
                <path d="M113.998681,45.8079002 C114,39.0326211 110.980747,32.6094705 105.764271,28.2861002 C106.183425,26.5579223 106.396437,24.7861833 106.398857,23.0079002 C106.398857,10.4158079 96.1911852,0.207900208 83.5993844,0.207900208 C71.0075835,0.207900208 60.7999121,10.4158079 60.7999121,23.0079002 L60.7999121,25.7078002 L58.252071,23.4791002 C57.5354351,22.8511957 56.4645649,22.8511957 55.747929,23.4791002 L53.2000879,25.7078002 L53.2000879,23.0079002 C53.2000879,10.4158079 42.9924165,0.207900208 30.4006156,0.207900208 C17.8088148,0.207900208 7.6011433,10.4158079 7.6011433,23.0079002 C7.60356316,24.7861833 7.8165751,26.5579223 8.23572861,28.2861002 C-0.314988889,35.3727852 -2.5008733,47.5969964 3.0640483,57.2079002 C-2.5008733,66.8188041 -0.314988889,79.0430152 8.23572861,86.1297002 C7.8165751,87.8578781 7.60356316,89.6296171 7.6011433,91.4079002 C7.6011433,103.999993 17.8088148,114.2079 30.4006156,114.2079 C42.9924165,114.2079 53.2000879,103.999993 53.2000879,91.4079002 L53.2000879,86.1563002 L55.2995394,90.3572002 C55.6209425,91.0020878 56.2794719,91.4096745 57,91.4096745 C57.7205281,91.4096745 58.3790575,91.0020878 58.7004606,90.3572002 L60.7999121,86.1563002 L60.7999121,91.4079002 C60.7999121,103.999993 71.0075835,114.2079 83.5993844,114.2079 C96.1911852,114.2079 106.398857,103.999993 106.398857,91.4079002 C106.396437,89.6296171 106.183425,87.8578781 105.764271,86.1297002 C114.314989,79.0430152 116.500873,66.8188041 110.935952,57.2079002 C112.948283,53.7461467 114.005214,49.8120677 113.998681,45.8079002 L113.998681,45.8079002 Z M57,27.4330002 L68.3522373,37.3662002 C69.5896912,38.4485004 70.2996922,40.0123999 70.2996922,41.6564002 L70.2996922,72.4079002 L66.4997801,72.4079002 L66.4997801,66.7079002 L62.6998681,66.7079002 L62.6998681,72.4079002 L51.3001319,72.4079002 L51.3001319,66.7079002 L47.5002199,66.7079002 L47.5002199,72.4079002 L43.7003078,72.4079002 L43.7003078,41.6564002 C43.7003078,40.0123999 44.4103088,38.4485004 45.6477627,37.3662002 L57,27.4330002 Z M62.6998681,79.4379002 L62.6998681,76.2079002 L66.4997801,76.2079002 L66.4997801,79.4379002 L64.5998241,82.2879002 L62.6998681,79.4379002 Z M51.3001319,79.4379002 L49.4001759,82.2879002 L47.5002199,79.4379002 L47.5002199,76.2079002 L51.3001319,76.2079002 L51.3001319,79.4379002 Z M49.4002505,91.4079002 C49.4201669,98.5616579 45.420347,105.120283 39.0512106,108.377409 C32.6820742,111.634536 25.0233342,111.038007 19.2353099,106.833977 C13.4472857,102.629946 10.5111784,95.5310915 11.6385499,88.4667002 C15.0426035,90.3952833 18.8883956,91.4086321 22.8007915,91.4079002 L22.8007915,87.6079002 C19.2101611,87.6070068 15.6943592,86.581376 12.6664261,84.6515002 C14.7996054,79.0483407 19.4506085,74.7795998 25.2156356,73.1337002 L24.1858595,69.4781002 C17.6578129,71.3326254 12.2952012,75.998902 9.55619805,82.2081002 C3.79245252,76.6100531 2.17833246,67.989037 5.52639132,60.6849002 C7.45322597,62.9338056 9.80380248,64.7815139 12.4441312,66.1227002 L14.1540916,62.7312002 C11.5924619,61.411581 9.36758317,59.5220478 7.65054215,57.2079002 C9.36777074,54.8924669 11.5942026,53.0027188 14.1578915,51.6846002 L12.4479311,48.2931002 C9.80591817,49.6333633 7.45392729,51.4811683 5.52639132,53.7309002 C2.17928258,46.4259822 3.79494589,37.8048529 9.55999796,32.2077002 C12.2990011,38.4168984 17.6616128,43.083175 24.1896594,44.9377002 L25.2194355,41.2821002 C19.4580175,39.6335971 14.8109647,35.3652508 12.6797258,29.7643002 C15.7038435,27.8368528 19.2146853,26.8113232 22.8007915,26.8079002 L22.8007915,23.0079002 C18.8883956,23.0071684 15.0426035,24.0205171 11.6385499,25.9491002 C10.5111784,18.8847089 13.4472857,11.7858544 19.2353099,7.58182375 C25.0233342,3.37779306 32.6820742,2.78126456 39.0512106,6.03839108 C45.420347,9.29551761 49.4201669,15.8541425 49.4002505,23.0079002 L49.4002505,29.0328002 L43.1455207,34.5067002 C41.0834989,36.310505 39.9005826,38.9167211 39.9003958,41.6564002 L39.9003958,51.0595002 L28.700155,73.4586002 C28.405779,74.0477173 28.4374606,74.7472643 28.783883,75.307359 C29.1303054,75.8674538 29.7420566,76.2082072 30.4006156,76.2079002 L43.7003078,76.2079002 L43.7003078,80.0079002 C43.7009014,80.383111 43.8119114,80.7498489 44.0195004,81.0624002 L47.8194125,86.7624002 C48.171901,87.2907327 48.7650614,87.6079953 49.4002505,87.6079002 L49.4002505,91.4079002 Z M39.9003958,72.4079002 L33.4747445,72.4079002 L39.9003958,59.5563002 L39.9003958,72.4079002 Z M57,85.2595002 L55.100044,81.4595002 L55.100044,76.2079002 L58.899956,76.2079002 L58.899956,81.4595002 L57,85.2595002 Z M104.440002,82.2081002 C101.700999,75.998902 96.3383872,71.3326254 89.8103406,69.4781002 L88.7805645,73.1337002 C94.5455916,74.7795998 99.1965947,79.0483407 101.329774,84.6515002 C98.3029309,86.5806819 94.7885463,87.6062837 91.1992085,87.6079002 L91.1992085,91.4079002 C95.1116044,91.4086321 98.9573965,90.3952833 102.36145,88.4667002 C103.488822,95.5310915 100.552714,102.629946 94.7646901,106.833977 C88.9766658,111.038007 81.3179258,111.634536 74.9487894,108.377409 C68.579653,105.120283 64.5798331,98.5616579 64.5997495,91.4079002 L64.5997495,87.6079002 C65.2349386,87.6079953 65.828099,87.2907327 66.1805875,86.7624002 L69.9804996,81.0624002 C70.1880886,80.7498489 70.2990986,80.383111 70.2996922,80.0079002 L70.2996922,76.2079002 L83.5993844,76.2079002 C84.2596323,76.2115142 84.8744157,75.8720875 85.2231319,75.3114164 C85.571848,74.7507454 85.6044899,74.049232 85.3093448,73.4586002 L74.0996042,51.0595002 L74.0996042,41.6564002 C74.0994174,38.9167211 72.9165011,36.310505 70.8544793,34.5067002 L64.5997495,29.0328002 L64.5997495,23.0079002 C64.5798331,15.8541425 68.579653,9.29551761 74.9487894,6.03839108 C81.3179258,2.78126456 88.9766658,3.37779306 94.7646901,7.58182375 C100.552714,11.7858544 103.488822,18.8847089 102.36145,25.9491002 C98.9573965,24.0205171 95.1116044,23.0071684 91.1992085,23.0079002 L91.1992085,26.8079002 C94.7898389,26.8087936 98.3056408,27.8344244 101.333574,29.7643002 C99.2003946,35.3674597 94.5493915,39.6362006 88.7843644,41.2821002 L89.8141405,44.9377002 C96.3421871,43.083175 101.704799,38.4168984 104.443802,32.2077002 C110.207547,37.8057473 111.821668,46.4267634 108.473609,53.7309002 C106.546774,51.4819948 104.196198,49.6342865 101.555869,48.2931002 L99.8459084,51.6846002 C102.407538,53.0042194 104.632417,54.8937526 106.349458,57.2079002 C104.632229,59.5233335 102.405797,61.4130816 99.8421085,62.7312002 L101.552069,66.1227002 C104.192719,64.782018 106.543388,62.9342374 108.469809,60.6849002 C111.816918,67.9898182 110.201254,76.6109475 104.436202,82.2081002 L104.440002,82.2081002 Z M74.0996042,59.5563002 L80.5252555,72.4079002 L74.0996042,72.4079002 L74.0996042,59.5563002 Z" id="Shape"></path>
                <path d="M55.6001083,58.6872525 L55.6001083,68.2079002 L59.3998917,68.2079002 L59.3998917,58.6872525 C64.1780493,57.7289065 67.4415053,53.3711865 66.9513545,48.6037211 C66.4612038,43.8362557 62.3766867,40.2079002 57.5,40.2079002 C52.6233133,40.2079002 48.5387962,43.8362557 48.0486455,48.6037211 C47.5584947,53.3711865 50.8219507,57.7289065 55.6001083,58.6872525 Z M57.5,43.9395825 C60.6478436,43.9395825 63.199675,46.4469585 63.199675,49.5399635 C63.199675,52.6329685 60.6478436,55.1403445 57.5,55.1403445 C54.3521564,55.1403445 51.800325,52.6329685 51.800325,49.5399635 C51.800325,46.4469585 54.3521564,43.9395825 57.5,43.9395825 L57.5,43.9395825 Z" id="Shape"></path>
            </g>
        </g>
    </g>
</svg>