<?xml version="1.0" encoding="UTF-8"?>
<svg width="114px" height="114px" viewBox="0 0 114 114" version="1.1" xmlns="http://www.w3.org/2000/svg" xmlns:xlink="http://www.w3.org/1999/xlink">
    <title>desk</title>
    <g id="Symbols" stroke="none" stroke-width="1" fill="none" fill-rule="evenodd">
        <g id="ProjectType__icon--desk" fill="#000000" fill-rule="nonzero">
            <g id="desk">
                <path d="M112.1,49.4 L109.857666,49.4 L106.361963,31.919629 C106.181055,31.035498 105.402685,30.4 104.5,30.4 L81.7,30.4 C81.6369141,30.4 81.5821777,30.4343261 81.5190917,30.4398926 C81.3428223,30.4538085 81.1702636,30.4927734 81.0041991,30.5558594 C80.9271973,30.5883301 80.851123,30.6245116 80.7787598,30.6662598 C80.6229004,30.75625 80.4800292,30.8685058 80.3547853,30.9983886 C80.3186036,31.0364259 80.2657228,31.0540527 80.2313964,31.0958009 C80.1970703,31.1375489 80.2082031,31.150537 80.191504,31.1755859 C80.0801759,31.3305176 79.9929687,31.5021484 79.9345214,31.6839844 C79.9048339,31.7461426 79.8779297,31.8092286 79.8547364,31.8741699 C79.8482422,31.8890136 79.8426759,31.9047853 79.838037,31.919629 L76.3423339,49.4 L49.4,49.4 L49.4,47.5 C49.4,44.3521973 46.8478027,41.8 43.7,41.8 L43.7,38 L58.9,38 C62.0478027,38 64.6,35.4478027 64.6,32.3 L64.6,5.7 C64.6,2.55219732 62.0478027,0 58.9,0 L13.3,0 C10.1521973,0 7.6,2.55219732 7.6,5.7 L7.6,32.3 C7.6,35.4478027 10.1521973,38 13.3,38 L28.5,38 L28.5,41.8 C25.3521973,41.8 22.8,44.3521973 22.8,47.5 L22.8,49.4 L1.9,49.4 C0.850732362,49.4 -2.7000624e-14,50.2507324 -2.7000624e-14,51.3 L-2.7000624e-14,112.1 C-2.7000624e-14,113.149268 0.850732362,114 1.9,114 L9.5,114 C10.5492676,114 11.4,113.149268 11.4,112.1 L11.4,98.8 L102.6,98.8 L102.6,112.1 C102.6,113.149268 103.450732,114 104.5,114 L112.1,114 C113.149268,114 114,113.149268 114,112.1 L114,51.3 C114,50.2507324 113.149268,49.4 112.1,49.4 L112.1,49.4 Z M102.942334,34.2 L105.981592,49.4 L87.0576661,49.4 L84.0184083,34.2 L102.942334,34.2 Z M81.483838,43.0691406 L83.0665527,49.4 L80.2165527,49.4 L81.483838,43.0691406 Z M11.4,5.7 C11.4,4.65073236 12.2507324,3.8 13.3,3.8 L58.9,3.8 C59.9492676,3.8 60.8,4.65073236 60.8,5.7 L60.8,26.6 L11.4,26.6 L11.4,5.7 Z M11.4,32.3 L11.4,30.4 L60.8,30.4 L60.8,32.3 C60.8,33.3492676 59.9492676,34.2 58.9,34.2 L13.3,34.2 C12.2507324,34.2 11.4,33.3492676 11.4,32.3 Z M32.3,38 L39.9,38 L39.9,41.8 L32.3,41.8 L32.3,38 Z M26.6,47.5 C26.6,46.4507324 27.4507324,45.6 28.5,45.6 L43.7,45.6 C44.7492676,45.6 45.6,46.4507324 45.6,47.5 L45.6,49.4 L26.6,49.4 L26.6,47.5 Z M11.4,95 L11.4,60.8 L102.6,60.8 L102.6,95 L11.4,95 Z M110.2,110.2 L106.4,110.2 L106.4,58.9 C106.4,57.8507324 105.549268,57 104.5,57 L9.5,57 C8.45073236,57 7.6,57.8507324 7.6,58.9 L7.6,110.2 L3.8,110.2 L3.8,53.2 L110.2,53.2 L110.2,110.2 Z" id="Shape"></path>
            </g>
        </g>
    </g>
</svg>